<?xml version="1.0" encoding="UTF-8"?> <svg xmlns="http://www.w3.org/2000/svg" width="30" height="30" viewBox="0 0 30 30" fill="none"><path fill-rule="evenodd" clip-rule="evenodd" d="M15 30C23.2843 30 30 23.2843 30 15C30 6.71573 23.2843 0 15 0C6.71573 0 0 6.71573 0 15C0 23.2843 6.71573 30 15 30ZM19 9.65667H17.5395C16.3942 9.65667 16.1729 10.2193 16.1722 11.0413V13.0007H18.7567L18.4027 15.8447H16.1729V23H13.3238V15.844H11V13H13.3238V10.7593C13.3238 8.32467 14.7664 7 16.8722 7C17.8814 7 18.748 7.078 19 7.11267V9.65667Z" fill="white"></path></svg> 