<?xml version="1.0" encoding="UTF-8"?> <svg xmlns="http://www.w3.org/2000/svg" width="68" height="20" viewBox="0 0 68 20" fill="none"><path d="M67.1961 18.1294C67.1938 18.0794 67.1807 18.0306 67.1579 17.9861C67.1351 17.9417 67.1031 17.9026 67.0639 17.8715C67.0247 17.8405 66.9794 17.8182 66.9309 17.8061C66.8824 17.7941 66.8319 17.7925 66.7827 17.8016H66.4103V18.9189H66.6077V18.4534H66.7529L67.0136 18.9189H67.2557L66.954 18.431C67.024 18.4185 67.0871 18.381 67.1316 18.3256C67.1761 18.2701 67.199 18.2004 67.1961 18.1294ZM66.5928 18.2895V17.9804H66.7753C66.7998 17.9744 66.8254 17.9737 66.8503 17.9784C66.8751 17.983 66.8987 17.9929 66.9195 18.0073C66.9403 18.0217 66.9577 18.0404 66.9707 18.0621C66.9838 18.0838 66.992 18.108 66.995 18.1331C66.9911 18.1603 66.9816 18.1865 66.967 18.2098C66.9524 18.2332 66.933 18.2532 66.9103 18.2686C66.8875 18.284 66.8617 18.2945 66.8346 18.2994C66.8075 18.3043 66.7797 18.3035 66.7529 18.297H66.5928V18.2895ZM66.779 17.3771C66.5851 17.3807 66.3965 17.4417 66.2372 17.5523C66.0778 17.6629 65.9547 17.8181 65.8834 17.9985C65.812 18.1789 65.7956 18.3763 65.8363 18.566C65.8769 18.7557 65.9727 18.9291 66.1116 19.0644C66.2506 19.1998 66.4265 19.291 66.6172 19.3266C66.8078 19.3622 67.0048 19.3406 67.1832 19.2645C67.3617 19.1884 67.5136 19.0613 67.6199 18.8991C67.7263 18.7368 67.7823 18.5468 67.7808 18.3528C67.7794 18.2229 67.7523 18.0945 67.7011 17.9751C67.6499 17.8557 67.5756 17.7475 67.4826 17.6569C67.3895 17.5662 67.2794 17.4948 67.1587 17.4468C67.038 17.3988 66.9089 17.3751 66.779 17.3771V17.3771ZM66.779 19.1982C66.614 19.1982 66.4527 19.1493 66.3155 19.0576C66.1783 18.966 66.0714 18.8357 66.0083 18.6832C65.9451 18.5308 65.9286 18.3631 65.9608 18.2012C65.993 18.0394 66.0724 17.8908 66.1891 17.7741C66.3058 17.6574 66.4544 17.578 66.6162 17.5458C66.7781 17.5136 66.9458 17.5301 67.0982 17.5933C67.2507 17.6564 67.381 17.7633 67.4726 17.9005C67.5643 18.0377 67.6132 18.199 67.6132 18.364C67.6122 18.5849 67.524 18.7966 67.3678 18.9528C67.2116 19.109 67 19.1972 66.779 19.1982V19.1982Z" fill="white"></path><path d="M0 5.79117L3.3518 5.79117L3.3518 19.1984H0L0 5.79117ZM14.1856 5.40013C13.3259 5.38735 12.4801 5.61755 11.7455 6.06426C11.0108 6.51096 10.4173 7.156 10.0331 7.92515H9.9772V5.77628L6.79298 5.77628L6.79298 19.1835H10.1448L10.1448 11.8095C10.1448 10.0219 11.1503 8.1784 13.2731 8.1784C15.3959 8.1784 15.787 10.1634 15.787 11.7537L15.787 19.2021H19.1388L19.1388 10.8226C19.1388 8.08157 17.6863 5.40013 14.1967 5.40013H14.1856ZM43.0334 13.1651C43.0334 14.9528 42.0279 16.7963 39.9051 16.7963C37.7822 16.7963 37.3912 14.815 37.3912 13.221V5.77255L34.0394 5.77255V14.1521C34.0394 16.8894 35.4919 19.5708 38.9852 19.5708C39.8482 19.5837 40.6971 19.3516 41.4335 18.9014C42.1698 18.4511 42.7634 17.8012 43.1451 17.0272H43.201V19.1798H46.3852V5.77255H43.0334V13.1465V13.1651ZM49.8152 19.1984H53.167V5.79117L49.8152 5.79117V19.1984ZM20.837 8.77055H24.5948L24.5948 19.1984H27.9466L27.9466 8.77055H31.7043V5.79117L20.8557 5.79117V8.77055H20.837ZM26.2707 4.05196C26.6714 4.05196 27.0631 3.93314 27.3963 3.71052C27.7294 3.4879 27.9891 3.17148 28.1424 2.80129C28.2958 2.43109 28.3359 2.02373 28.2577 1.63073C28.1795 1.23772 27.9866 0.87673 27.7033 0.593392C27.4199 0.310054 27.0589 0.117102 26.6659 0.0389292C26.2729 -0.0392436 25.8656 0.000878668 25.4954 0.15422C25.1252 0.307562 24.8088 0.567236 24.5861 0.900406C24.3635 1.23358 24.2447 1.62528 24.2447 2.02598C24.2486 2.56266 24.4654 3.07584 24.8473 3.45289C25.2292 3.82994 25.7452 4.04003 26.2819 4.03706L26.2707 4.05196ZM55.517 5.79862V8.778H59.2748V19.2058H62.6266V8.778H66.3843V5.79862L55.5282 5.79862H55.517ZM60.9507 4.05196C61.3514 4.05196 61.7431 3.93314 62.0762 3.71052C62.4094 3.4879 62.6691 3.17148 62.8224 2.80129C62.9758 2.43109 63.0159 2.02373 62.9377 1.63073C62.8595 1.23772 62.6666 0.87673 62.3832 0.593392C62.0999 0.310054 61.7389 0.117102 61.3459 0.0389292C60.9529 -0.0392436 60.5455 0.000878668 60.1753 0.15422C59.8051 0.307562 59.4887 0.567236 59.2661 0.900406C59.0435 1.23358 58.9247 1.62528 58.9247 2.02598C58.9286 2.56266 59.1453 3.07584 59.5273 3.45289C59.9092 3.82994 60.4251 4.04003 60.9618 4.03706L60.9507 4.05196Z" fill="white"></path></svg> 