<?xml version="1.0" encoding="UTF-8"?> <svg xmlns="http://www.w3.org/2000/svg" width="30" height="30" viewBox="0 0 30 30" fill="none"><path fill-rule="evenodd" clip-rule="evenodd" d="M30 15C30 23.2843 23.2843 30 15 30C6.71573 30 0 23.2843 0 15C0 6.71573 6.71573 0 15 0C23.2843 0 30 6.71573 30 15ZM13.2186 18.4334L11.451 20.201C10.7182 20.9338 9.53149 20.9338 8.79931 20.2011C8.06698 19.4688 8.06698 18.282 8.79916 17.5498L12.3349 14.014C13.0671 13.2818 14.2539 13.2818 14.9861 14.014C15.2302 14.2581 15.6259 14.2581 15.87 14.014C16.1141 13.77 16.1141 13.3742 15.87 13.1301C14.6496 11.9098 12.6714 11.9098 11.451 13.1301L7.91528 16.6658C6.69491 17.8862 6.69491 19.8645 7.91528 21.0848C9.1355 22.3059 11.1139 22.3059 12.3349 21.0848L14.1025 19.3173C14.3466 19.0732 14.3466 18.6774 14.1025 18.4334C13.8584 18.1893 13.4626 18.1893 13.2186 18.4334ZM16.6655 7.91528C17.8859 6.69491 19.8648 6.69491 21.0852 7.91528C22.3055 9.13564 22.3055 11.1139 21.0852 12.3343L17.1963 16.2232C15.9759 17.4436 13.9977 17.4436 12.7773 16.2232C12.5332 15.9791 12.5332 15.5833 12.7773 15.3393C13.0214 15.0952 13.4171 15.0952 13.6612 15.3393C14.3934 16.0715 15.5802 16.0715 16.3124 15.3393L20.2013 11.4504C20.9334 10.7182 20.9334 9.53137 20.2013 8.79919C19.4691 8.06698 18.2816 8.06698 17.5494 8.79919L15.4287 10.9199C15.1847 11.164 14.7889 11.164 14.5448 10.9199C14.3008 10.6758 14.3008 10.28 14.5448 10.036L16.6655 7.91528Z" fill="white"></path></svg> 