<svg width="9" height="15" viewBox="0 0 9 15" fill="none" xmlns="http://www.w3.org/2000/svg">
<path d="M7.00889 14.9722C6.87734 14.9722 6.74709 14.9462 6.6256 14.8958C6.50411 14.8453 6.39376 14.7714 6.30089 14.6782L0.309889 8.67024C0.216912 8.57736 0.143153 8.46707 0.0928288 8.34568C0.0425045 8.22428 0.0166016 8.09415 0.0166016 7.96274C0.0166016 7.83132 0.0425045 7.70119 0.0928288 7.5798C0.143153 7.4584 0.216912 7.34811 0.309889 7.25524L6.31889 1.26424C6.50666 1.07673 6.76123 0.971492 7.0266 0.97168C7.29196 0.971867 7.54638 1.07746 7.73389 1.26524C7.9214 1.45301 8.02663 1.70758 8.02644 1.97294C8.02626 2.23831 7.92066 2.49273 7.73289 2.68024L2.43289 7.96524L7.71789 13.2652C7.85742 13.4052 7.95234 13.5834 7.99068 13.7772C8.02902 13.9711 8.00905 14.172 7.9333 14.3545C7.85754 14.5371 7.7294 14.6931 7.56505 14.8028C7.4007 14.9126 7.20752 14.9712 7.00989 14.9712L7.00889 14.9722Z" fill="white"/>
</svg>
