<svg width="32" height="32" viewBox="0 0 32 32" fill="none" xmlns="http://www.w3.org/2000/svg">
<path d="M26.3007 15.0493L16.886 5.6066C16.7632 5.47909 16.6162 5.37731 16.4537 5.30721C16.2911 5.23711 16.1162 5.20009 15.9392 5.19831C15.7621 5.19653 15.5865 5.23002 15.4226 5.29683C15.2586 5.36363 15.1096 5.46243 14.9843 5.58743C14.8589 5.71244 14.7597 5.86117 14.6924 6.02492C14.6251 6.18868 14.5912 6.3642 14.5924 6.54124C14.5937 6.71827 14.6302 6.89328 14.6999 7.05605C14.7695 7.21881 14.8709 7.36608 14.998 7.48926L22.1394 14.6519L6.69271 14.6293C6.33909 14.6293 5.99995 14.7697 5.7499 15.0198C5.49985 15.2698 5.35938 15.609 5.35938 15.9626C5.35938 16.3162 5.49985 16.6554 5.7499 16.9054C5.99995 17.1555 6.33909 17.2959 6.69271 17.2959L22.1407 17.3186L14.9727 24.4599C14.8452 24.5827 14.7434 24.7297 14.6733 24.8923C14.6032 25.0549 14.5662 25.2298 14.5644 25.4068C14.5626 25.5838 14.5961 25.7594 14.6629 25.9234C14.7297 26.0873 14.8285 26.2363 14.9535 26.3617C15.0786 26.4871 15.2273 26.5863 15.391 26.6536C15.5548 26.7208 15.7303 26.7548 15.9074 26.7535C16.0844 26.7523 16.2594 26.7157 16.4222 26.6461C16.5849 26.5764 16.7322 26.4751 16.8554 26.3479L26.298 16.9346C26.548 16.6846 26.6884 16.3455 26.6884 15.9919C26.6884 15.6384 26.548 15.2993 26.298 15.0493H26.3007Z" fill="#C9007A"/>
</svg>
