<svg width="32" height="32" viewBox="0 0 32 32" fill="none" xmlns="http://www.w3.org/2000/svg">
<path d="M25.3604 14.7043L9.91376 14.6803L17.0751 7.54032C17.3183 7.2892 17.4532 6.95258 17.4507 6.60297C17.4482 6.25336 17.3084 5.91873 17.0615 5.67116C16.8147 5.42359 16.4804 5.28289 16.1308 5.27936C15.7812 5.27584 15.4442 5.40978 15.1924 5.65232L5.74976 15.067C5.4998 15.317 5.35938 15.6561 5.35938 16.0097C5.35937 16.3632 5.4998 16.7023 5.74976 16.9523L15.1604 26.4003C15.2832 26.5278 15.4302 26.6296 15.5928 26.6997C15.7554 26.7698 15.9303 26.8068 16.1073 26.8086C16.2843 26.8104 16.4599 26.7769 16.6239 26.7101C16.7878 26.6433 16.9368 26.5445 17.0622 26.4195C17.1876 26.2945 17.2868 26.1458 17.3541 25.982C17.4213 25.8182 17.4553 25.6427 17.454 25.4657C17.4527 25.2886 17.4162 25.1136 17.3466 24.9509C17.2769 24.7881 17.1756 24.6408 17.0484 24.5177L9.90576 17.347L25.3551 17.371C25.7087 17.371 26.0479 17.2305 26.2979 16.9805C26.5479 16.7304 26.6884 16.3913 26.6884 16.0377C26.6884 15.684 26.5479 15.3449 26.2979 15.0948C26.0479 14.8448 25.7087 14.7043 25.3551 14.7043H25.3604Z" fill="#C9007A"/>
</svg>
