<svg width="9" height="15" viewBox="0 0 9 15" fill="none" xmlns="http://www.w3.org/2000/svg">
<path d="M1.0089 14.9636C0.810769 14.9641 0.616944 14.9058 0.452012 14.796C0.28708 14.6862 0.158475 14.5299 0.0825162 14.347C0.00655694 14.164 -0.0133339 13.9625 0.0253682 13.7682C0.0640703 13.5739 0.159621 13.3955 0.299896 13.2556L5.5999 7.97057L0.318896 2.67057C0.226117 2.57759 0.152559 2.46725 0.102423 2.34585C0.052287 2.22445 0.0265536 2.09436 0.0266929 1.96301C0.0268322 1.83166 0.0528412 1.70163 0.103235 1.58033C0.153628 1.45903 0.22742 1.34885 0.320396 1.25607C0.413372 1.16329 0.523711 1.08973 0.645114 1.0396C0.766518 0.989461 0.896608 0.963728 1.02796 0.963868C1.1593 0.964007 1.28934 0.990016 1.41064 1.04041C1.53193 1.0908 1.64212 1.16459 1.7349 1.25757L7.7259 7.26657C7.91337 7.4541 8.01868 7.70841 8.01868 7.97357C8.01868 8.23873 7.91337 8.49304 7.7259 8.68057L1.7149 14.6716C1.62229 14.7644 1.51224 14.838 1.39107 14.8881C1.2699 14.9382 1.14002 14.9639 1.0089 14.9636Z" fill="white"/>
</svg>
