<?xml version="1.0" encoding="UTF-8"?> <svg xmlns="http://www.w3.org/2000/svg" width="133" height="26" viewBox="0 0 133 26" fill="none"><path d="M67.56 21H72.58C76.28 21 80.4 18.88 80.4 13.92C80.4 8.6 76.28 6.84 72.58 6.84H67.56V21ZM70.08 18.8V9H72.18C74.78 9 77.7 9.86 77.7 13.92C77.7 17.74 74.78 18.8 72.18 18.8H70.08ZM84.5534 15.24C84.6534 13.9 85.7934 12.92 87.2134 12.92C88.7734 12.92 89.4734 14 89.4734 15.24H84.5534ZM91.8734 16.32C91.8734 12.86 89.9134 11.12 87.2334 11.12C84.3334 11.12 82.1534 13.16 82.1534 16.26C82.1534 19.38 84.3534 21.28 87.3134 21.28C89.1334 21.28 90.4934 20.64 91.4334 19.36L89.8334 18.08C89.2934 18.84 88.4934 19.32 87.2934 19.32C85.8934 19.32 84.6534 18.32 84.5534 16.96H91.8534C91.8734 16.74 91.8734 16.54 91.8734 16.32ZM101.018 12.58C100.238 11.6 98.7978 11.12 97.4178 11.12C95.5178 11.12 93.5978 12.04 93.5978 14.18C93.5978 15.98 95.0178 16.56 96.4378 16.9C97.8978 17.24 98.6378 17.48 98.6378 18.28C98.6378 19.14 97.7978 19.42 97.0978 19.42C96.0578 19.42 95.1578 18.9 94.6378 18.22L93.0578 19.7C93.9778 20.72 95.5178 21.28 96.9978 21.28C99.0978 21.28 100.998 20.42 100.998 18.08C100.998 16.2 99.3178 15.56 97.8978 15.22C96.5578 14.9 95.8178 14.7 95.8178 13.96C95.8178 13.2 96.5978 12.92 97.3578 12.92C98.2378 12.92 99.0378 13.4 99.4578 13.96L101.018 12.58ZM103.125 21H105.525V11.4H103.125V21ZM102.785 8.14C102.785 8.9 103.425 9.58 104.305 9.58C105.185 9.58 105.865 8.96 105.865 8.14C105.865 7.32 105.185 6.7 104.305 6.7C103.425 6.7 102.785 7.38 102.785 8.14ZM115.916 11.4V12.84H115.876C115.176 11.68 113.916 11.12 112.576 11.12C109.676 11.12 107.876 13.38 107.876 16.16C107.876 18.88 109.736 21.16 112.616 21.16C113.936 21.16 115.056 20.66 115.756 19.72H115.796V20.42C115.796 22.32 115.076 23.72 112.756 23.72C111.556 23.72 110.316 23.24 109.396 22.36L108.016 24.22C109.256 25.24 111.216 25.8 112.776 25.8C116.516 25.8 118.196 23.6 118.196 20.14V11.4H115.916ZM113.076 13.08C114.816 13.08 115.916 14.48 115.916 16.14C115.916 17.74 114.836 19.18 113.056 19.18C111.336 19.18 110.316 17.66 110.316 16.14C110.316 14.44 111.336 13.08 113.076 13.08ZM121.073 21H123.473V15.72C123.473 14.44 124.193 13.12 125.713 13.12C127.253 13.12 127.513 14.54 127.513 15.68V21H129.913V15C129.913 13.04 128.873 11.12 126.373 11.12C124.953 11.12 123.813 11.98 123.393 12.94H123.353V11.4H121.073V21Z" fill="black"></path><path d="M58.491 19.7799C58.4889 19.7365 58.4776 19.694 58.4578 19.6553C58.4379 19.6165 58.41 19.5825 58.3759 19.5555C58.3418 19.5285 58.3024 19.5091 58.2601 19.4986C58.2179 19.4881 58.1739 19.4867 58.1312 19.4947H57.807V20.4672H57.9788V20.062H58.1052L58.3322 20.4672H58.5429L58.2803 20.0425C58.3412 20.0316 58.3961 19.999 58.4349 19.9507C58.4736 19.9024 58.4935 19.8418 58.491 19.7799ZM57.9658 19.9193V19.6503H58.1247C58.1461 19.6451 58.1683 19.6445 58.19 19.6485C58.2116 19.6525 58.2321 19.6611 58.2502 19.6737C58.2683 19.6863 58.2835 19.7025 58.2948 19.7214C58.3062 19.7402 58.3134 19.7613 58.316 19.7832C58.3126 19.8069 58.3042 19.8296 58.2915 19.85C58.2788 19.8703 58.262 19.8877 58.2422 19.9011C58.2223 19.9146 58.1999 19.9237 58.1763 19.928C58.1527 19.9322 58.1285 19.9315 58.1052 19.9258H57.9658V19.9193ZM58.1279 19.1251C57.9591 19.1283 57.795 19.1814 57.6563 19.2776C57.5176 19.3739 57.4104 19.509 57.3483 19.666C57.2862 19.823 57.2719 19.9949 57.3073 20.16C57.3427 20.3251 57.4261 20.476 57.547 20.5939C57.668 20.7117 57.8211 20.7911 57.9871 20.822C58.153 20.853 58.3245 20.8342 58.4798 20.768C58.6351 20.7018 58.7674 20.5911 58.8599 20.4499C58.9525 20.3087 59.0012 20.1433 59 19.9744C58.9987 19.8613 58.9751 19.7496 58.9305 19.6457C58.886 19.5417 58.8214 19.4476 58.7403 19.3687C58.6593 19.2897 58.5635 19.2276 58.4584 19.1858C58.3533 19.144 58.241 19.1234 58.1279 19.1251ZM58.1279 20.7103C57.9843 20.7103 57.8439 20.6677 57.7245 20.5879C57.6051 20.5081 57.512 20.3947 57.457 20.262C57.4021 20.1294 57.3877 19.9834 57.4157 19.8425C57.4437 19.7016 57.5129 19.5722 57.6145 19.4707C57.716 19.3691 57.8454 19.3 57.9863 19.272C58.1271 19.2439 58.2731 19.2583 58.4058 19.3133C58.5385 19.3682 58.6519 19.4613 58.7317 19.5807C58.8115 19.7001 58.8541 19.8405 58.8541 19.9842C58.8532 20.1765 58.7764 20.3607 58.6405 20.4967C58.5045 20.6327 58.3202 20.7095 58.1279 20.7103Z" fill="black"></path><path d="M0 9.04093H2.91758L2.91758 20.7113H0L0 9.04093ZM12.3478 8.70055C11.5995 8.68942 10.8633 8.88981 10.2238 9.27864C9.5844 9.66747 9.06773 10.229 8.73329 10.8985H8.68467L8.68467 9.02797L5.91296 9.02797L5.91296 20.6983H8.83054L8.83054 14.2796C8.83054 12.7236 9.70582 11.1189 11.5536 11.1189C13.4014 11.1189 13.7418 12.8468 13.7418 14.231L13.7418 20.7145H16.6594L16.6594 13.4205C16.6594 11.0346 15.3951 8.70055 12.3576 8.70055H12.3478ZM37.4585 15.4596C37.4585 17.0157 36.5832 18.6203 34.7354 18.6203C32.8876 18.6203 32.5472 16.8957 32.5472 15.5082V9.02472L29.6297 9.02472L29.6297 16.3187C29.6297 18.7014 30.8939 21.0354 33.9347 21.0354C34.6859 21.0467 35.4249 20.8446 36.0658 20.4527C36.7068 20.0608 37.2234 19.4951 37.5557 18.8213H37.6044V20.695H40.3761V9.02472H37.4585V15.4434V15.4596ZM43.3617 20.7113H46.2793V9.04093H43.3617V20.7113ZM18.1376 11.6343H21.4086L21.4086 20.7113H24.3261L24.3261 11.6343H27.5971V9.04093H18.1538V11.6343H18.1376ZM22.8674 7.52703C23.2161 7.52703 23.5571 7.4236 23.8471 7.22983C24.1371 7.03605 24.3632 6.76062 24.4966 6.43838C24.6301 6.11614 24.665 5.76156 24.597 5.41947C24.5289 5.07738 24.361 4.76315 24.1143 4.51652C23.8677 4.26989 23.5535 4.10193 23.2114 4.03389C22.8693 3.96584 22.5147 4.00076 22.1925 4.13424C21.8702 4.26772 21.5948 4.49375 21.401 4.78376C21.2073 5.07377 21.1038 5.41473 21.1038 5.76352C21.1073 6.23067 21.2959 6.67737 21.6284 7.00557C21.9608 7.33377 22.4099 7.51665 22.8771 7.51406L22.8674 7.52703ZM48.3249 9.04742V11.6408H51.5958V20.7177H54.5134V11.6408H57.7843V9.04742L48.3346 9.04742H48.3249ZM53.0546 7.52703C53.4034 7.52703 53.7443 7.4236 54.0343 7.22983C54.3244 7.03605 54.5504 6.76062 54.6839 6.43838C54.8173 6.11614 54.8523 5.76156 54.7842 5.41947C54.7162 5.07738 54.5482 4.76315 54.3016 4.51652C54.0549 4.26989 53.7407 4.10193 53.3986 4.03389C53.0565 3.96584 52.702 4.00076 52.3797 4.13424C52.0575 4.26772 51.7821 4.49375 51.5883 4.78376C51.3945 5.07377 51.2911 5.41473 51.2911 5.76352C51.2945 6.23067 51.4831 6.67737 51.8156 7.00557C52.1481 7.33377 52.5972 7.51665 53.0643 7.51406L53.0546 7.52703Z" fill="black"></path></svg> 