<svg width="141" height="24" viewBox="0 0 141 24" fill="none" xmlns="http://www.w3.org/2000/svg">
<path d="M74.4863 19.0002H79.5063C83.2063 19.0002 87.3263 16.8802 87.3263 11.9202C87.3263 6.6002 83.2063 4.8402 79.5063 4.8402H74.4863V19.0002ZM77.0063 16.8002V7.0002H79.1063C81.7063 7.0002 84.6263 7.8602 84.6263 11.9202C84.6263 15.7402 81.7063 16.8002 79.1063 16.8002H77.0063Z" fill="white"/>
<path d="M91.4798 13.2402C91.5798 11.9002 92.7198 10.9202 94.1398 10.9202C95.6998 10.9202 96.3998 12.0002 96.3998 13.2402H91.4798ZM98.7998 14.3202C98.7998 10.8602 96.8398 9.1202 94.1598 9.1202C91.2598 9.1202 89.0798 11.1602 89.0798 14.2602C89.0798 17.3802 91.2798 19.2802 94.2398 19.2802C96.0598 19.2802 97.4198 18.6402 98.3598 17.3602L96.7598 16.0802C96.2198 16.8402 95.4198 17.3202 94.2198 17.3202C92.8198 17.3202 91.5798 16.3202 91.4798 14.9602H98.7798C98.7998 14.7402 98.7998 14.5402 98.7998 14.3202Z" fill="white"/>
<path d="M107.944 10.5802C107.164 9.60019 105.724 9.1202 104.344 9.1202C102.444 9.1202 100.524 10.0402 100.524 12.1802C100.524 13.9802 101.944 14.5602 103.364 14.9002C104.824 15.2402 105.564 15.4802 105.564 16.2802C105.564 17.1402 104.724 17.4202 104.024 17.4202C102.984 17.4202 102.084 16.9002 101.564 16.2202L99.9841 17.7002C100.904 18.7202 102.444 19.2802 103.924 19.2802C106.024 19.2802 107.924 18.4202 107.924 16.0802C107.924 14.2002 106.244 13.5602 104.824 13.2202C103.484 12.9002 102.744 12.7002 102.744 11.9602C102.744 11.2002 103.524 10.9202 104.284 10.9202C105.164 10.9202 105.964 11.4002 106.384 11.9602L107.944 10.5802Z" fill="white"/>
<path d="M110.051 19.0002H112.451V9.4002H110.051V19.0002ZM109.711 6.1402C109.711 6.9002 110.351 7.58019 111.231 7.58019C112.111 7.58019 112.791 6.96019 112.791 6.1402C112.791 5.3202 112.111 4.7002 111.231 4.7002C110.351 4.7002 109.711 5.38019 109.711 6.1402Z" fill="white"/>
<path d="M122.842 9.4002V10.8402H122.802C122.102 9.6802 120.842 9.1202 119.502 9.1202C116.602 9.1202 114.802 11.3802 114.802 14.1602C114.802 16.8802 116.662 19.1602 119.542 19.1602C120.862 19.1602 121.982 18.6602 122.682 17.7202H122.722V18.4202C122.722 20.3202 122.002 21.7202 119.682 21.7202C118.482 21.7202 117.242 21.2402 116.322 20.3602L114.942 22.2202C116.182 23.2402 118.142 23.8002 119.702 23.8002C123.442 23.8002 125.122 21.6002 125.122 18.1402V9.4002H122.842ZM120.002 11.0802C121.742 11.0802 122.842 12.4802 122.842 14.1402C122.842 15.7402 121.762 17.1802 119.982 17.1802C118.262 17.1802 117.242 15.6602 117.242 14.1402C117.242 12.4402 118.262 11.0802 120.002 11.0802Z" fill="white"/>
<path d="M127.999 19.0002H130.399V13.7202C130.399 12.4402 131.119 11.1202 132.639 11.1202C134.179 11.1202 134.439 12.5402 134.439 13.6802V19.0002H136.839V13.0002C136.839 11.0402 135.799 9.1202 133.299 9.1202C131.879 9.1202 130.739 9.9802 130.319 10.9402H130.279V9.4002H127.999V19.0002Z" fill="white"/>
<g clip-path="url(#clip0_4317_75697)">
<path d="M33.7961 13.1196C33.7961 16.4481 36.4608 18.8808 39.845 18.8808C43.2292 18.8808 45.896 16.4518 45.896 13.1196V5.47949H42.6172V12.7275C42.6172 14.5228 41.4175 15.7271 39.8358 15.7271C38.254 15.7271 37.0543 14.5228 37.0543 12.7275V5.47949L33.7793 5.47949L33.7961 13.1196Z" fill="white"/>
<path d="M54.6562 8.54595H58.5671V18.6151H61.8438V8.54595H65.7528V5.47949L54.6562 5.47949V8.54595Z" fill="white"/>
<path d="M52.5384 5.47949L49.2617 5.47949V18.6151H52.5384V5.47949Z" fill="white"/>
<path d="M20.5586 8.54595H24.4693L24.4693 18.6151H27.7462V8.54595H31.6552V5.47949L20.5586 5.47949V8.54595Z" fill="white"/>
<path d="M3.36652 5.47949L0.0898438 5.47949L0.0898437 18.6151H3.36652L3.36652 12.0473L3.36652 5.47949Z" fill="white"/>
<path d="M18.8321 10.9751C18.8321 7.6466 16.1655 5.21387 12.7813 5.21387C9.39705 5.21387 6.73047 7.64286 6.73047 10.9751L6.73047 18.6152H10.0072L10.0072 11.3672C10.0072 9.57196 11.2088 8.36767 12.7887 8.36767C14.3686 8.36767 15.5703 9.57196 15.5703 11.3672V18.6152H18.847L18.8321 10.9751Z" fill="white"/>
</g>
<defs>
<clipPath id="clip0_4317_75697">
<rect width="65.9255" height="14.0068" fill="white" transform="translate(0 5.04883)"/>
</clipPath>
</defs>
</svg>
