<svg width="141" height="25" viewBox="0 0 141 25" fill="none" xmlns="http://www.w3.org/2000/svg">
<path d="M77.9512 20.0002H82.9712C86.6712 20.0002 90.7912 17.8802 90.7912 12.9202C90.7912 7.6002 86.6712 5.8402 82.9712 5.8402H77.9512V20.0002ZM80.4712 17.8002V8.0002H82.5712C85.1712 8.0002 88.0912 8.8602 88.0912 12.9202C88.0912 16.7402 85.1712 17.8002 82.5712 17.8002H80.4712Z" fill="black"/>
<path d="M94.9446 14.2402C95.0446 12.9002 96.1846 11.9202 97.6046 11.9202C99.1646 11.9202 99.8646 13.0002 99.8646 14.2402H94.9446ZM102.265 15.3202C102.265 11.8602 100.305 10.1202 97.6246 10.1202C94.7246 10.1202 92.5446 12.1602 92.5446 15.2602C92.5446 18.3802 94.7446 20.2802 97.7046 20.2802C99.5246 20.2802 100.885 19.6402 101.825 18.3602L100.225 17.0802C99.6846 17.8402 98.8846 18.3202 97.6846 18.3202C96.2846 18.3202 95.0446 17.3202 94.9446 15.9602H102.245C102.265 15.7402 102.265 15.5402 102.265 15.3202Z" fill="black"/>
<path d="M111.409 11.5802C110.629 10.6002 109.189 10.1202 107.809 10.1202C105.909 10.1202 103.989 11.0402 103.989 13.1802C103.989 14.9802 105.409 15.5602 106.829 15.9002C108.289 16.2402 109.029 16.4802 109.029 17.2802C109.029 18.1402 108.189 18.4202 107.489 18.4202C106.449 18.4202 105.549 17.9002 105.029 17.2202L103.449 18.7002C104.369 19.7202 105.909 20.2802 107.389 20.2802C109.489 20.2802 111.389 19.4202 111.389 17.0802C111.389 15.2002 109.709 14.5602 108.289 14.2202C106.949 13.9002 106.209 13.7002 106.209 12.9602C106.209 12.2002 106.989 11.9202 107.749 11.9202C108.629 11.9202 109.429 12.4002 109.849 12.9602L111.409 11.5802Z" fill="black"/>
<path d="M113.516 20.0002H115.916V10.4002H113.516V20.0002ZM113.176 7.1402C113.176 7.9002 113.816 8.58019 114.696 8.58019C115.576 8.58019 116.256 7.96019 116.256 7.1402C116.256 6.3202 115.576 5.7002 114.696 5.7002C113.816 5.7002 113.176 6.38019 113.176 7.1402Z" fill="black"/>
<path d="M126.307 10.4002V11.8402H126.267C125.567 10.6802 124.307 10.1202 122.967 10.1202C120.067 10.1202 118.267 12.3802 118.267 15.1602C118.267 17.8802 120.127 20.1602 123.007 20.1602C124.327 20.1602 125.447 19.6602 126.147 18.7202H126.187V19.4202C126.187 21.3202 125.467 22.7202 123.147 22.7202C121.947 22.7202 120.707 22.2402 119.787 21.3602L118.407 23.2202C119.647 24.2402 121.607 24.8002 123.167 24.8002C126.907 24.8002 128.587 22.6002 128.587 19.1402V10.4002H126.307ZM123.467 12.0802C125.207 12.0802 126.307 13.4802 126.307 15.1402C126.307 16.7402 125.227 18.1802 123.447 18.1802C121.727 18.1802 120.707 16.6602 120.707 15.1402C120.707 13.4402 121.727 12.0802 123.467 12.0802Z" fill="black"/>
<path d="M131.464 20.0002H133.864V14.7202C133.864 13.4402 134.584 12.1202 136.104 12.1202C137.644 12.1202 137.904 13.5402 137.904 14.6802V20.0002H140.304V14.0002C140.304 12.0402 139.264 10.1202 136.764 10.1202C135.344 10.1202 134.204 10.9802 133.784 11.9402H133.744V10.4002H131.464V20.0002Z" fill="black"/>
<g clip-path="url(#clip0_4317_75698)">
<path d="M35.5704 13.8091C35.5704 17.3124 38.3751 19.8729 41.9371 19.8729C45.4991 19.8729 48.3059 17.3163 48.3059 13.8091V5.76758H44.8549V13.3963C44.8549 15.2859 43.5922 16.5535 41.9275 16.5535C40.2625 16.5535 38.9998 15.2859 38.9998 13.3963V5.76758L35.5527 5.76758L35.5704 13.8091Z" fill="black"/>
<path d="M57.5273 8.99513H61.6437V19.5932H65.0925V8.99513H69.2069V5.76758L57.5273 5.76758V8.99513Z" fill="black"/>
<path d="M55.2984 5.76758L51.8496 5.76758V19.5932H55.2984V5.76758Z" fill="black"/>
<path d="M21.6367 8.99513H25.7529L25.7529 19.5932H29.2019L29.2019 8.99513H33.3162V5.76758L21.6367 5.76758V8.99513Z" fill="black"/>
<path d="M3.54451 5.76758L0.0957031 5.76758L0.0957031 19.5932H3.54451L3.54451 12.6804L3.54451 5.76758Z" fill="black"/>
<path d="M19.8213 11.5512C19.8213 8.04784 17.0147 5.4873 13.4527 5.4873C9.89065 5.4873 7.08398 8.0439 7.08398 11.5512L7.08398 19.5927H10.5328L10.5328 11.9639C10.5328 10.0743 11.7976 8.80679 13.4605 8.80679C15.1234 8.80679 16.3882 10.0743 16.3882 11.9639V19.5927H19.837L19.8213 11.5512Z" fill="black"/>
</g>
<defs>
<clipPath id="clip0_4317_75698">
<rect width="69.3887" height="14.7426" fill="white" transform="translate(0 5.31445)"/>
</clipPath>
</defs>
</svg>
