<svg width="523" height="99" viewBox="0 0 523 99" fill="none" xmlns="http://www.w3.org/2000/svg">
<path d="M44.4698 89.0203C68.7998 89.0203 88.5199 69.2986 88.5199 44.9694C88.5199 20.6405 68.7998 0.917969 44.4698 0.917969C20.1398 0.917969 0.419922 20.6405 0.419922 44.9694C0.419922 69.2986 20.1398 89.0203 44.4698 89.0203Z" fill="white"/>
<path d="M12.6895 44.9697C12.6895 54.2876 20.2695 61.728 29.7595 61.728H32.1895V55.5045H29.7595C23.9195 55.5045 19.0496 50.7412 19.0496 44.9697C19.0496 39.1982 23.9195 34.4349 29.7595 34.4349H35.5995V67.0127C35.5995 70.3854 38.5195 73.2364 41.9695 73.2364V28.1766H29.7595C20.2695 28.1766 12.6895 35.617 12.6895 44.9349V44.9697ZM59.0695 28.2114H56.6395V34.4349H59.0695C64.9095 34.4349 69.7795 39.1982 69.7795 44.9697C69.7795 50.7412 64.9095 55.5045 59.0695 55.5045H53.2295V22.9266C53.2295 19.554 50.3095 16.7031 46.8695 16.7031V61.728H59.0695C68.5695 61.728 76.1495 54.2876 76.1495 44.9697C76.1495 35.6517 68.5695 28.2114 59.0695 28.2114Z" fill="black"/>
<path d="M142.38 98.1314H132.47V73.4454H132.33C129.75 77.3745 124.71 79.7735 119.19 79.7735C107.09 79.7735 99.6504 70.3514 99.6504 58.9473C99.6504 47.5433 107.61 38.4688 118.98 38.4688C126.28 38.4688 130.73 41.9803 132.75 45.0748H132.99V39.6161H142.52V98.1665H142.45L142.38 98.1314ZM121.1 71.6032C128.4 71.6032 132.78 65.1707 132.78 59.0863C132.78 53.0018 128.4 46.3959 121.1 46.3959C113.38 46.3959 109.66 52.7933 109.66 58.9125C109.66 65.0317 113.38 71.6032 121.1 71.6032Z" fill="white"/>
<path d="M188.76 78.6265H179.33V72.3684H179.2C177.46 76.2975 172.73 79.7395 166.86 79.7395C156.53 79.7395 152.18 71.9506 152.18 63.9542V39.5469H162.09V61.1727C162.09 65.7968 163.17 71.5685 169.54 71.5685C175.9 71.5685 178.81 66.1796 178.81 60.9989V39.5469H188.79V78.5575L188.76 78.6265Z" fill="white"/>
<path d="M198.869 39.6152H208.859V78.6252H198.869V39.6152Z" fill="white"/>
<path d="M245.89 50.4283C244.32 48.2379 240.91 46.6385 237.67 46.6385C230.37 46.6385 226.72 53.0359 226.72 59.1552C226.72 65.2744 230.44 71.6714 237.99 71.6714C241.09 71.6714 244.45 70.4545 246.37 68.1604L252.56 74.3491C249.26 77.8601 243.76 79.8081 237.89 79.8081C226.14 79.8081 216.33 72.1583 216.33 59.1899C216.33 46.2213 225.96 38.5723 237.61 38.5723C243.41 38.5723 249.47 40.8323 252.59 44.6568L245.78 50.4978L245.89 50.4283Z" fill="white"/>
<path d="M257.671 17.1895H267.621V56.0605H267.851L282.951 39.6497H295.711L278.501 57.312L296.821 78.6943H283.671L267.921 58.7029H267.681V78.6943H257.711V17.1895H257.641H257.671Z" fill="white"/>
<path d="M311.391 17.1895V44.5869H311.661C313.721 42.0488 317.721 38.5024 325.021 38.5024C336.351 38.5024 344.321 47.4378 344.321 58.9809C344.321 70.524 336.871 79.8073 324.771 79.8073C319.211 79.8073 313.821 77.2693 311.111 72.8189H310.971V78.6592H301.551V17.1895H311.391ZM322.761 46.4296C315.461 46.4296 311.071 53.0355 311.071 59.12C311.071 65.2044 315.461 71.6368 322.761 71.6368C330.481 71.6368 334.191 65.0654 334.191 58.9462C334.191 52.827 330.481 46.4296 322.761 46.4296Z" fill="white"/>
<path d="M371.47 38.5039C383.49 38.5039 393.09 46.7092 393.09 58.9824C393.09 71.2555 383.46 79.8082 371.47 79.8082C359.47 79.8082 349.84 71.2555 349.84 58.9824C349.84 46.7092 359.47 38.5039 371.47 38.5039ZM371.47 71.6726C379.32 71.6726 382.97 65.1016 382.97 58.9824C382.97 52.8632 379.32 46.4658 371.47 46.4658C363.61 46.4658 359.96 52.8632 359.96 58.9824C359.96 65.1016 363.61 71.6726 371.47 71.6726Z" fill="white"/>
<path d="M420.101 38.5039C432.101 38.5039 441.73 46.7092 441.73 58.9824C441.73 71.2555 432.101 79.8082 420.101 79.8082C408.111 79.8082 398.48 71.2555 398.48 58.9824C398.48 46.7092 408.111 38.5039 420.101 38.5039ZM420.101 71.6726C427.971 71.6726 431.621 65.1016 431.621 58.9824C431.621 52.8632 427.971 46.4658 420.101 46.4658C412.251 46.4658 408.601 52.8632 408.601 58.9824C408.601 65.1016 412.251 71.6726 420.101 71.6726Z" fill="white"/>
<path d="M449.551 17.1895H459.501V56.0605H459.781L474.871 39.6497H487.661L470.451 57.312L488.771 78.6943H475.631L459.881 58.7029H459.611V78.6943H449.631V17.1895H449.551Z" fill="white"/>
<path d="M515.82 50.0122C514.08 47.7522 510.78 45.8052 507.13 45.8052C503.97 45.8052 500.74 46.9178 500.74 50.0122C500.74 53.1065 503.83 53.8019 509.36 55.1231C515.27 56.5139 522.22 59.1215 522.22 66.7706C522.22 76.2972 514.36 79.7742 505.64 79.7742C499.52 79.7742 493.12 77.5142 489.33 73.3415L495.87 67.3267C498.02 70.0735 501.74 72.1944 506.06 72.1944C508.94 72.1944 512.45 71.0467 512.45 67.5698C512.45 64.3367 509.36 63.3632 503.34 61.9724C497.43 60.5818 491.59 58.2523 491.59 50.9161C491.59 42.2241 499.55 38.5039 507.41 38.5039C513.11 38.5039 519.09 40.4509 522.33 44.4493L515.86 50.0469V49.9774L515.82 50.0122Z" fill="white"/>
</svg>
