<svg width="417" height="89" viewBox="0 0 417 89" fill="none" xmlns="http://www.w3.org/2000/svg">
<path d="M44.9553 88.8223C69.2843 88.8223 89.0063 69.0989 89.0063 44.7702C89.0063 20.4412 69.2843 0.71875 44.9553 0.71875C20.6263 0.71875 0.904297 20.4412 0.904297 44.7702C0.904297 69.0989 20.6263 88.8223 44.9553 88.8223Z" fill="white"/>
<path d="M35.1859 60.8343C30.0399 57.1837 25.2069 53.2896 20.5479 49.1174C18.8449 52.7681 17.3848 56.6621 15.9238 60.5909C23.2598 66.9185 33.2388 74.0112 40.0878 78.1492C48.8488 55.48 62.5489 40.5644 75.6909 30.0992C73.9869 26.4485 71.7969 23.2498 68.8409 20.6074C54.9339 31.316 43.4609 44.98 35.1859 60.8343Z" fill="black"/>
<path d="M99.8184 46.6816V38.7545H106.769V27.2461H116.542V38.7545H126.485V46.6816H116.542V65.1437C116.542 68.7246 117.377 71.2626 121.753 71.2626C123.075 71.2626 124.849 70.9845 125.965 70.4284L126.314 78.216C124.575 78.877 121.897 79.294 119.706 79.294C109.173 79.294 106.769 72.8274 106.769 65.2478V46.7163H99.8184V46.6816Z" fill="white"/>
<path d="M168.172 78.458H158.749V72.0608H158.612C156.872 76.059 152.147 79.571 146.271 79.571C135.944 79.571 131.596 71.6437 131.596 63.5077V38.6484H141.505V60.6915C141.505 65.3851 142.587 71.2958 148.949 71.2958C155.311 71.2958 158.228 65.8371 158.228 60.5525V38.7179H168.172V78.458Z" fill="white"/>
<path d="M187.709 38.7193V45.3253H187.853C190.01 40.7706 194.249 37.5371 199.426 37.5371C200.193 37.5371 201.166 37.6067 201.83 37.8153V46.9246C200.508 46.5769 199.673 46.5074 198.735 46.5074C189.798 46.5074 188.058 54.2955 188.058 57.1813V78.4593H178.115V38.7193H187.675H187.709Z" fill="white"/>
<path d="M216.782 15.877V43.7611H217.056C219.11 41.1883 223.11 37.5724 230.41 37.5724C241.744 37.5724 249.708 46.6817 249.708 58.4334C249.708 70.1847 242.264 79.642 230.163 79.642C224.602 79.642 219.213 77.069 216.535 72.5494H216.398V78.529H206.975V15.877H216.816H216.782ZM228.15 45.6734C220.85 45.6734 216.467 52.3837 216.467 58.5724C216.467 64.7609 220.884 71.3325 228.15 71.3325C235.868 71.3325 239.586 64.6568 239.586 58.4334C239.586 52.2098 235.868 45.6734 228.15 45.6734Z" fill="white"/>
<path d="M276.826 37.5723C288.82 37.5723 298.45 45.9167 298.45 58.4333C298.45 70.9502 288.82 79.6421 276.826 79.6421C264.828 79.6421 255.199 70.9502 255.199 58.4333C255.199 45.9167 264.794 37.5723 276.826 37.5723ZM276.826 71.3323C284.68 71.3323 288.33 64.6566 288.33 58.4333C288.33 52.2097 284.68 45.6733 276.826 45.6733C268.964 45.6733 265.314 52.2097 265.314 58.4333C265.314 64.6566 268.964 71.3323 276.826 71.3323Z" fill="white"/>
<path d="M300.779 46.6816V38.7545H307.729V27.2461H317.499V38.7545H327.449V46.6816H317.499V65.1437C317.499 68.7246 318.339 71.2626 322.719 71.2626C324.039 71.2626 325.809 70.9845 326.929 70.4284L327.269 78.216C325.539 78.877 322.859 79.294 320.669 79.294C310.139 79.294 307.729 72.8274 307.729 65.2478V46.7163H300.779V46.6816Z" fill="white"/>
<path d="M358.461 73.3833H358.181C356.201 76.8953 351.511 79.4333 345.841 79.4333C339.441 79.4333 330.961 76.3733 330.961 67.0903C330.961 55.2342 345.841 53.6001 358.291 53.6001V52.6266C358.291 47.7243 354.151 45.3253 349.181 45.3253C344.971 45.3253 340.901 47.307 338.361 49.8799L333.221 43.8302C337.711 39.6928 343.961 37.5371 350.011 37.5371C364.261 37.5371 367.711 46.2988 367.711 54.2607V78.4243H358.421V73.3833H358.461ZM358.321 60.3451H356.091C349.801 60.3451 340.941 61.11 340.941 66.9513C340.941 70.7411 344.521 71.9231 347.891 71.9231C354.701 71.9231 358.351 68.0634 358.351 61.7359V60.3451H358.321Z" fill="white"/>
<path d="M388.401 57.357L374.071 38.7559H385.991L394.621 51.0986L403.481 38.7559H414.931L400.671 57.357L416.911 78.461H404.841L394.511 63.9977L384.051 78.461H372.301L388.431 57.357H388.401Z" fill="white"/>
</svg>
