<svg width="481" height="89" viewBox="0 0 481 89" fill="none" xmlns="http://www.w3.org/2000/svg">
<path d="M44.7103 88.8223C69.0303 88.8223 88.7604 69.0989 88.7604 44.7702C88.7604 20.4412 69.0303 0.71875 44.7103 0.71875C20.3803 0.71875 0.650391 20.4412 0.650391 44.7702C0.650391 69.0989 20.3803 88.8223 44.7103 88.8223Z" fill="white"/>
<path d="M22.4904 49.1858C22.4904 41.6063 26.1404 37.7123 32.0104 37.7123C36.3904 37.7123 39.1103 39.4159 40.0803 39.9027C40.8103 39.1725 41.3004 37.9557 41.3004 36.7387C41.3004 34.5483 38.8704 32.3579 31.7704 32.3579C23.4604 32.3579 16.4004 38.1991 16.4004 49.1858C16.4004 60.1726 22.7704 66.0133 31.0404 66.0133C36.1504 66.0133 40.0804 64.31 41.3004 63.8233V57.7388C40.0804 58.7123 35.9404 60.6593 32.0104 60.6593C26.6604 60.6593 22.4904 56.7653 22.4904 49.1858ZM62.9904 48.9424C66.6404 44.5616 70.0904 39.4159 72.5204 32.8447L67.1604 30.8977C63.7604 40.1808 58.6104 46.5086 52.5304 51.6544V19.6328H46.6903V65.2833H52.5304V58.4342C54.7204 56.7306 56.6604 55.0269 58.8904 53.0798L64.2504 62.363C65.4604 64.5533 67.4103 65.7702 70.0903 65.7702C71.5503 65.7702 72.5204 65.2833 72.7604 65.0402L62.9904 48.9424Z" fill="black"/>
<path d="M341.731 37.9547C332.691 37.9547 329.281 40.3885 329.281 43.0657C329.281 45.2561 330.501 46.4728 330.741 46.7162C331.961 45.986 335.371 44.039 340.761 44.039C347.601 44.039 350.041 47.2031 350.041 50.8885V51.862C334.181 53.5657 326.121 56.4862 326.121 66.0125C326.121 72.3752 330.981 77.2424 337.841 77.2424C344.691 77.2424 348.581 73.5925 350.281 72.132V76.5125H357.131V50.6451C357.131 42.3355 351.051 37.9547 341.761 37.9547H341.731ZM350.041 66.0125C346.881 69.1763 343.711 70.8801 339.541 70.8801C335.651 70.8801 333.461 68.2032 333.461 65.5262C333.461 61.6319 336.621 58.4332 350.041 56.973V66.0125ZM465.471 37.9547C456.431 37.9547 453.031 40.3885 453.031 43.0657C453.031 45.2561 454.241 46.4728 454.481 46.7162C455.701 45.986 459.111 44.039 464.501 44.039C471.341 44.039 473.781 47.2031 473.781 50.8885V51.862C457.921 53.5657 449.861 56.4862 449.861 66.0125C449.861 72.3752 454.721 77.2424 461.581 77.2424C468.431 77.2424 472.321 73.5925 474.021 72.132V76.5125H480.871V50.6451C480.871 42.3355 474.791 37.9547 465.501 37.9547H465.471ZM473.781 66.0125C470.621 69.1763 467.411 70.8801 463.281 70.8801C459.391 70.8801 457.201 68.2032 457.201 65.5262C457.201 61.6319 460.361 58.4332 473.781 56.973V66.0125ZM243.371 31.1054C240.941 31.1054 238.991 29.1583 238.991 26.7245C238.991 24.2907 240.941 22.3438 243.371 22.3438C245.801 22.3438 247.751 24.2907 247.751 26.7245C247.751 29.1583 245.801 31.1054 243.371 31.1054ZM239.721 76.5125V38.6849H246.811V76.5125H239.721ZM169.171 60.6583C179.671 60.6583 193.581 58.9547 193.581 47.9679C193.581 42.3702 188.961 37.9547 181.141 37.9547C167.951 37.9547 161.841 47.2378 161.841 58.2245C161.841 69.2112 168.691 77.2775 180.891 77.2775C187.741 77.2775 192.851 75.3305 192.851 71.6801C192.851 69.9762 191.641 68.5161 191.391 68.2723C190.661 68.7592 187.011 71.193 181.381 71.193C173.311 70.9499 169.911 65.8392 169.171 60.6932V60.6583ZM169.171 55.0607C169.421 49.463 173.071 43.8305 180.891 43.8305C184.301 43.8305 186.491 45.7775 186.491 48.2113C186.491 53.809 176.471 55.0607 169.171 55.0607ZM231.161 75.3305C229.701 75.5735 225.081 77.2775 218.471 77.2775C203.841 77.2775 198.201 69.2112 198.201 58.2245C198.201 44.3172 206.031 37.7113 214.791 37.7113C219.661 37.7113 223.101 39.1715 223.831 39.6582V22.8305H230.921L231.161 75.2954V75.3305ZM224.081 46.299C223.101 45.8122 220.181 44.1087 216.251 44.1087C209.681 44.1087 205.261 48.4895 205.261 58.016C205.261 66.3254 209.401 70.95 218.441 70.95C220.631 70.95 222.341 70.7062 224.081 70.2193V46.299ZM112.541 57.5292C112.541 48.7329 117.161 44.1087 124.011 44.1087C129.361 44.1087 132.811 46.0557 133.781 46.7858C134.751 46.0557 135.241 44.5953 135.241 43.1351C135.241 40.7013 132.321 38.0243 123.521 38.0243C113.261 38.0243 104.961 44.8736 104.961 57.8074C104.961 70.7411 112.541 77.3465 122.761 77.3465C128.841 77.3465 133.751 75.4004 135.211 74.6694V67.5772C133.751 68.551 128.601 70.9843 123.981 70.9843C117.371 70.9843 112.501 66.6034 112.501 57.5639L112.541 57.5292ZM311.931 57.2858C316.551 52.175 320.481 46.0556 323.411 38.4762L316.831 36.0424C312.701 47.0292 306.581 54.3306 299.041 60.4498V23.0738H291.941V76.5125H299.041V68.69C301.711 66.7431 304.141 64.7954 306.861 62.3271L313.181 73.3145C314.891 75.9915 316.831 77.4514 320.281 77.4514C321.981 77.4514 323.201 76.9645 323.441 76.7215L311.971 57.1815L311.931 57.2858ZM148.421 43.6218C148.421 39.9712 146.221 38.0243 143.551 38.0243C142.821 38.0243 142.091 38.0242 141.601 38.2675V76.5825H148.701V54.3653C150.641 49.7411 155.551 45.3256 161.631 45.3256V38.2328C154.781 38.2328 151.131 41.3966 148.451 46.299V43.6218H148.421ZM372.711 43.6218C372.711 39.9712 370.521 38.0243 367.841 38.0243C367.111 38.0243 366.381 38.0242 365.901 38.2675V76.5825H372.981V54.3653C374.931 49.7411 379.841 45.3256 385.921 45.3256V38.2328C379.071 38.2328 375.421 41.3966 372.741 46.299V43.6218H372.711ZM397.361 43.6218C397.361 39.7278 395.411 38.0243 392.491 38.0243C391.761 38.0243 391.031 38.0242 390.541 38.2675V76.5825H397.641V50.4713C399.831 47.5508 404.001 44.3867 407.651 44.3867C411.791 44.3867 413.741 47.064 413.741 50.9928V76.6164H420.821V50.506C423.261 47.3422 427.191 44.4215 430.841 44.4215C434.981 44.4215 436.931 47.0987 436.931 51.0275V76.6515H444.021V50.5407C444.021 43.448 440.861 38.0938 432.061 38.0938C426.701 38.0938 422.781 41.0143 419.611 44.4564C418.631 42.0226 416.201 38.0938 408.621 38.0938C404.001 38.0938 400.311 40.771 397.391 43.6914L397.361 43.6218ZM255.571 29.7146V66.3253C255.571 73.6614 259.951 77.3124 266.801 77.3124C269.971 77.3124 272.891 76.5824 273.381 76.3384V70.2542C272.891 70.498 270.941 70.9843 268.271 70.9843C264.371 70.9843 262.671 68.5511 262.671 65.3865V44.6301H272.441V38.789H262.671V34.8951C262.671 31.2443 260.471 29.2974 257.561 29.2974C256.821 29.2974 256.101 29.5407 255.601 29.784L255.571 29.7146Z" fill="white"/>
</svg>
