<svg width="481" height="97" viewBox="0 0 481 97" fill="none" xmlns="http://www.w3.org/2000/svg">
<path d="M165.85 51.9403V77.0083H155.87V54.7566C155.87 49.9933 154.79 44.048 148.39 44.048C142 44.048 139.6 49.9238 139.6 55.1043V77.0083H129.66V52.7748C129.66 47.8377 127.32 44.0828 122.25 44.0828C116.27 44.0828 113.52 49.6109 113.52 54.9304V76.9733H103.58V36.8857H113.04V43.3178H113.17C114.91 39.4238 119.15 35.7383 125.55 35.7383C131.95 35.7383 135.77 38.8327 138.03 43.3178C140.71 38.485 145.16 35.7383 151.14 35.7383C161.5 35.7383 165.85 43.7351 165.85 51.9403Z" fill="white"/>
<path d="M200.51 71.862H200.23C198.25 75.3735 193.521 77.9455 187.851 77.9455C181.461 77.9455 172.9 74.8515 172.9 65.4993C172.9 53.5389 187.851 51.9047 200.301 51.9047V50.8965C200.301 45.9594 196.13 43.5256 191.16 43.5256C186.91 43.5256 182.851 45.5073 180.311 48.115L175.16 42.0306C179.65 37.8584 185.941 35.668 192.031 35.668C206.321 35.668 209.791 44.5339 209.791 52.5305V76.9025H200.51V71.7921H200.551L200.51 71.862ZM200.371 58.7193H198.111C191.781 58.7193 182.92 59.4842 182.92 65.3945C182.92 69.2192 186.5 70.4012 189.91 70.4012C196.72 70.4012 200.371 66.5073 200.371 60.1448V58.7193Z" fill="white"/>
<path d="M219.84 36.8848H229.78V76.9723H219.84V36.8848Z" fill="white"/>
<path d="M225.02 30.3829C228.36 30.3829 231.11 27.6362 231.11 24.2637C231.11 20.8911 228.39 18.1445 225.02 18.1445C221.65 18.1445 218.939 20.8911 218.939 24.2637C218.939 27.6362 221.65 30.3829 225.02 30.3829Z" fill="white"/>
<path d="M350.469 30.592C353.809 30.592 356.549 27.8453 356.549 24.4727C356.549 21.1003 353.839 18.3535 350.469 18.3535C347.089 18.3535 344.379 21.1003 344.379 24.4727C344.379 27.8453 347.089 30.592 350.469 30.592Z" fill="white"/>
<path d="M239.76 13.625H249.74V76.7643H239.76V13.625Z" fill="white"/>
<path d="M287.219 47.9768C285.659 45.7168 282.209 44.0828 278.979 44.0828C271.679 44.0828 267.999 50.6887 267.999 56.947C267.999 63.2053 271.719 69.811 279.259 69.811C282.359 69.811 285.729 68.5599 287.639 66.1952L293.859 72.5583C290.559 76.1733 285.069 78.1553 279.159 78.1553C267.369 78.1553 257.529 70.298 257.529 56.947C257.529 43.596 267.159 35.7383 278.879 35.7383C284.719 35.7383 290.769 38.0678 293.899 41.9967L287.079 48.0115L287.189 47.942L287.219 47.9768Z" fill="white"/>
<path d="M335.73 77.0099H325.75V54.9667C325.75 50.2035 324.74 44.3624 318.34 44.3624C311.94 44.3624 308.96 49.821 308.96 55.1406V77.0439H299.01V13.8359H308.96V42.4849H309.09C310.66 39.1472 315.07 35.7051 320.98 35.7051C331.34 35.7051 335.69 43.7018 335.69 51.9071V77.0099H335.73Z" fill="white"/>
<path d="M345.49 36.8848H355.44V76.9723H345.49V36.8848Z" fill="white"/>
<path d="M427.831 51.9403V77.0083H417.851V54.7566C417.851 49.9933 416.771 44.048 410.371 44.048C403.981 44.048 401.581 49.9238 401.581 55.1043V77.0083H391.64V52.7748C391.64 47.8377 389.3 44.0828 384.23 44.0828C378.25 44.0828 375.5 49.6109 375.5 54.9304V76.9733H365.561V36.8857H375.01V43.3178H375.15C376.89 39.4238 381.131 35.7383 387.531 35.7383C393.931 35.7383 397.75 38.8327 400.01 43.3178C402.69 38.485 407.171 35.7383 413.121 35.7383C423.481 35.7383 427.831 43.7351 427.831 51.9403Z" fill="white"/>
<path d="M447.33 36.8852V42.4829H447.61C449.59 39.319 454.08 35.7031 461.41 35.7031C472.81 35.7031 480.78 44.9167 480.78 56.7379C480.78 68.5592 473.3 78.1202 461.21 78.1202C455.64 78.1202 450.56 75.6172 448.03 71.619H447.89V96.9992H437.91V36.8852H447.4H447.33ZM459.12 43.9084C451.78 43.9084 447.4 50.6882 447.4 56.9465C447.4 63.2048 451.82 69.8111 459.12 69.8111C466.87 69.8111 470.59 63.0657 470.59 56.7726C470.59 50.4796 466.87 43.9084 459.12 43.9084Z" fill="white"/>
<path d="M44.3293 88.2023C68.6593 88.2023 88.3792 68.4799 88.3792 44.151C88.3792 19.8221 68.6593 0.0996094 44.3293 0.0996094C19.9993 0.0996094 0.279297 19.8221 0.279297 44.151C0.279297 68.4799 19.9993 88.2023 44.3293 88.2023Z" fill="white"/>
<path d="M59.0599 41.393C59.5199 41.3375 59.9499 41.3375 60.3499 41.393C60.5799 40.8645 60.6197 39.9506 60.4097 38.958C60.0997 37.4806 59.6799 36.5871 58.8299 36.7273C57.9599 36.8674 57.9298 37.9361 58.2398 39.4135C58.4098 40.2426 58.7199 40.9551 59.0599 41.393Z" fill="black"/>
<path d="M51.6607 42.5613C52.2807 42.8329 52.6608 43.0109 52.8108 42.8562C52.9008 42.7569 52.8707 42.573 52.7207 42.3307C52.4207 41.8343 51.7906 41.3292 51.1306 41.046C49.7706 40.462 48.1407 40.6547 46.9007 41.554C46.4807 41.8577 46.0907 42.2752 46.1507 42.5292C46.1607 42.611 46.2206 42.6723 46.3806 42.6927C46.7206 42.7307 47.9008 42.1292 49.2708 42.0475C50.2408 41.989 51.0407 42.2898 51.6607 42.5613Z" fill="black"/>
<path d="M50.4202 43.2682C49.6102 43.3937 49.1701 43.6594 48.8801 43.9076C48.6401 44.1207 48.4902 44.3543 48.4902 44.5207C48.4902 44.5995 48.5303 44.6433 48.5503 44.6667C48.5903 44.6988 48.6402 44.7164 48.6802 44.7164C48.8702 44.7164 49.2703 44.5528 49.2703 44.5528C50.3903 44.1528 51.1304 44.1995 51.8604 44.2842C52.2604 44.3309 52.4603 44.3543 52.5503 44.217C52.5703 44.1762 52.6003 44.0915 52.5203 43.9601C52.3303 43.6536 51.5202 43.1397 50.4102 43.2711L50.4202 43.2682Z" fill="black"/>
<path d="M56.5607 45.8684C57.1107 46.1371 57.7106 46.0319 57.9106 45.6319C58.1006 45.2349 57.8207 44.6947 57.2707 44.4261C56.7207 44.1574 56.1206 44.2626 55.9306 44.6626C55.7306 45.0597 56.0207 45.5998 56.5607 45.8684Z" fill="black"/>
<path d="M60.0703 42.8029C59.6303 42.7941 59.2602 43.2816 59.2502 43.8889C59.2402 44.4962 59.5902 44.9956 60.0402 45.0043C60.4802 45.0131 60.8503 44.5254 60.8603 43.9181C60.8703 43.3108 60.5203 42.8116 60.0703 42.8029Z" fill="black"/>
<path d="M30.2905 53.7668C30.1805 53.6297 29.9906 53.6705 29.8206 53.7114C29.7006 53.7406 29.5604 53.7727 29.4104 53.7698C29.0804 53.7639 28.8104 53.6238 28.6504 53.3873C28.4504 53.0778 28.4604 52.6136 28.6904 52.0851C28.7104 52.0151 28.7505 51.9333 28.7905 51.8486C29.1505 51.0515 29.7406 49.7143 29.0706 48.4442C28.5706 47.4865 27.7505 46.8909 26.7605 46.7654C25.8205 46.6456 24.8405 46.9961 24.2205 47.6822C23.2405 48.7654 23.0805 50.2369 23.2805 50.7566C23.3405 50.9464 23.4505 50.999 23.5305 51.0106C23.6905 51.034 23.9506 50.9114 24.1006 50.4968C24.1106 50.4676 24.1304 50.4209 24.1504 50.3624C24.2104 50.1435 24.3405 49.7318 24.5505 49.4048C24.8005 49.0077 25.2004 48.7362 25.6604 48.6369C26.1304 48.5347 26.6205 48.6253 27.0205 48.891C27.7105 49.3405 27.9704 50.1814 27.6804 50.9873C27.5204 51.4019 27.2806 52.1961 27.3306 52.8501C27.4406 54.1727 28.2505 54.7011 28.9905 54.7595C29.6905 54.7858 30.1906 54.3887 30.3206 54.0968C30.3906 53.9245 30.3305 53.8194 30.2905 53.7756V53.7668Z" fill="black"/>
<path d="M71.2603 51.3527C71.2303 51.2564 71.0604 50.614 70.8204 49.8373C70.5804 49.0607 70.3204 48.5147 70.3204 48.5147C71.3004 47.0636 71.3103 45.7644 71.1803 45.0286C71.0403 44.1176 70.6702 43.3381 69.9002 42.5351C69.1402 41.7323 67.5704 40.9089 65.3704 40.2928C65.1204 40.2228 64.2903 39.995 64.2203 39.9717C64.2103 39.925 64.1604 37.2504 64.1104 36.103C64.0704 35.2738 64.0004 33.9775 63.6004 32.7016C63.1204 30.976 62.2803 29.4636 61.2503 28.4972C64.1203 25.5191 65.9102 22.2373 65.9102 19.4198C65.9002 14.0066 59.2504 12.3687 51.0604 15.7614C51.0504 15.7643 49.3304 16.4913 49.3204 16.4972C49.3104 16.4884 46.1802 13.4169 46.1402 13.376C36.7902 5.23291 7.58025 37.7001 16.9203 45.5862L18.9603 47.3147C18.4303 48.687 18.2202 50.2578 18.3902 51.9483C18.6102 54.1177 19.7304 56.1994 21.5504 57.8052C23.2704 59.3323 25.5403 60.2957 27.7303 60.2957C31.3603 68.6693 39.6702 73.8077 49.4002 74.0967C59.8502 74.4067 68.6204 69.5075 72.2904 60.7045C72.5304 60.0856 73.5504 57.3031 73.5504 54.8447C73.5504 52.3862 72.1503 51.3527 71.2603 51.3527ZM28.5304 57.9454C28.2104 58.0009 27.8904 58.0213 27.5604 58.0125C24.4104 57.9279 21.0003 55.087 20.6703 51.7206C20.2903 47.9979 22.1904 45.1337 25.5604 44.4534C25.9704 44.3716 26.4503 44.3249 26.9703 44.3512C28.8603 44.4534 31.6404 45.9045 32.2704 50.0125C32.8404 53.6534 31.9504 57.3585 28.5404 57.9425L28.5304 57.9454ZM25.0103 42.2286C22.9103 42.6373 21.0603 43.8257 19.9303 45.4665C19.2603 44.9031 18.0004 43.814 17.7804 43.3877C15.9804 39.9629 19.7502 33.303 22.3802 29.5424C28.9002 20.2432 39.1004 13.2096 43.8204 14.4855C44.5904 14.7015 47.1302 17.6504 47.1302 17.6504C47.1302 17.6504 42.4104 20.2695 38.0304 23.9191C32.1304 28.4592 27.6803 35.0607 25.0103 42.2227V42.2286ZM58.1204 56.5557C58.1804 56.5264 58.2403 56.4476 58.2203 56.3717C58.2203 56.2754 58.1304 56.2052 58.0404 56.2169C58.0404 56.2169 53.0903 56.9498 48.4203 55.2388C48.9403 53.5863 50.2904 54.1819 52.3304 54.3483C56.0204 54.5673 59.3103 54.0301 61.7603 53.3293C63.8703 52.722 66.6504 51.5249 68.8004 49.8257C69.5304 51.4228 69.7904 53.1834 69.7904 53.1834C69.7904 53.1834 70.3504 53.0811 70.8204 53.3731C71.2604 53.6476 71.5904 54.2169 71.3704 55.6855C70.9204 58.433 69.7504 60.6636 67.7804 62.7133C66.5904 63.9981 65.1403 65.1191 63.4803 65.9307C62.6003 66.395 61.6603 66.7949 60.6703 67.1188C53.2703 69.5369 45.7003 66.8798 43.2503 61.1746C43.0503 60.7454 42.9003 60.2957 42.7603 59.8257C41.7203 56.0651 42.6004 51.5541 45.3704 48.7162C45.5304 48.5351 45.7103 48.322 45.7103 48.0534C45.7103 47.8286 45.5703 47.5921 45.4403 47.4257C44.4803 46.0242 41.1304 43.6359 41.8104 39.0169C42.2904 35.6972 45.1902 33.3585 47.9002 33.4986C48.1302 33.5104 48.3504 33.5249 48.5904 33.5366C49.7604 33.6066 50.7803 33.7556 51.7403 33.7965C53.3603 33.8665 54.8104 33.6301 56.5404 32.1965C57.1204 31.7118 57.5904 31.2943 58.3704 31.16C58.4604 31.1453 58.6604 31.0724 59.0704 31.0928C59.4904 31.1162 59.8903 31.23 60.2503 31.4695C61.6303 32.3862 61.8202 34.6111 61.9002 36.2373C61.9402 37.1658 62.0504 39.414 62.0904 40.0563C62.1804 41.5308 62.5604 41.7381 63.3504 41.9979C63.7904 42.1439 64.2004 42.252 64.8004 42.4213C66.6304 42.9352 67.7102 43.4549 68.3902 44.1235C68.8002 44.541 68.9904 44.9848 69.0504 45.4082C69.2604 46.979 67.8304 48.9206 64.0304 50.6841C59.8804 52.6111 54.8404 53.0987 51.3504 52.7132C51.0904 52.6841 50.1302 52.5761 50.1302 52.5761C47.3502 52.2023 45.7603 55.7994 47.4403 58.2665C48.5103 59.8549 51.4402 60.8885 54.3802 60.8914C61.1102 60.8914 66.2803 58.0184 68.2103 55.5366C68.2703 55.4636 68.2704 55.4549 68.3604 55.3176C68.4504 55.1746 68.3803 55.0957 68.2603 55.1775C66.6903 56.252 59.7003 60.5235 52.2403 59.2389C52.2403 59.2389 51.3303 59.0899 50.5003 58.7658C49.8403 58.5089 48.4604 57.8753 48.2904 56.4622C54.3304 58.3279 58.1204 56.5643 58.1204 56.5643V56.5557ZM37.0404 29.5015C39.3604 26.8271 42.2003 24.5001 44.7603 23.195C44.8503 23.1512 44.9402 23.2446 44.9002 23.3322C44.6902 23.7001 44.3003 24.4855 44.1803 25.0811C44.1603 25.1746 44.2604 25.2446 44.3304 25.1892C45.9204 24.1059 48.6804 22.9468 51.1104 22.7979C51.2204 22.7921 51.2603 22.9264 51.1803 22.9877C50.8203 23.2709 50.4204 23.6621 50.1204 24.0563C50.0704 24.1234 50.1103 24.2198 50.2003 24.2198C51.9003 24.2315 54.3104 24.8271 55.8704 25.7059C55.9704 25.7643 55.8904 25.9716 55.7804 25.9425C53.4104 25.3994 49.5403 24.9877 45.5103 25.9687C41.9203 26.8446 39.1803 28.1965 37.1803 29.6534C37.0803 29.7264 36.9604 29.5921 37.0404 29.4987V29.5015Z" fill="black"/>
</svg>
